<?xml version="1.0" encoding="UTF-8" standalone="no"?>
<svg
   xmlns:dc="http://purl.org/dc/elements/1.1/"
   xmlns:cc="http://creativecommons.org/ns#"
   xmlns:rdf="http://www.w3.org/1999/02/22-rdf-syntax-ns#"
   xmlns:svg="http://www.w3.org/2000/svg"
   xmlns="http://www.w3.org/2000/svg"
   xmlns:sodipodi="http://sodipodi.sourceforge.net/DTD/sodipodi-0.dtd"
   xmlns:inkscape="http://www.inkscape.org/namespaces/inkscape"
   width="268"
   height="268"
   viewBox="0 0 268 268"
   fill="none"
   version="1.1"
   id="svg14"
   sodipodi:docname="sprite.svg"
   inkscape:version="1.0.1 (3bc2e813f5, 2020-09-07)"
   inkscape:export-filename="C:\Users\skais\git\crazy4pi314\unitaryhack2022\static\img\sprite.png"
   inkscape:export-xdpi="183.40298"
   inkscape:export-ydpi="183.40298">
  <metadata
     id="metadata20">
    <rdf:RDF>
      <cc:Work
         rdf:about="">
        <dc:format>image/svg+xml</dc:format>
        <dc:type
           rdf:resource="http://purl.org/dc/dcmitype/StillImage" />
        <dc:title></dc:title>
      </cc:Work>
    </rdf:RDF>
  </metadata>
  <defs
     id="defs18" />
  <sodipodi:namedview
     pagecolor="#736f7a"
     bordercolor="#666666"
     borderopacity="1"
     objecttolerance="10"
     gridtolerance="10"
     guidetolerance="10"
     inkscape:pageopacity="0"
     inkscape:pageshadow="2"
     inkscape:window-width="3840"
     inkscape:window-height="2066"
     id="namedview16"
     showgrid="false"
     inkscape:zoom="3.761194"
     inkscape:cx="109"
     inkscape:cy="134"
     inkscape:window-x="2149"
     inkscape:window-y="1447"
     inkscape:window-maximized="1"
     inkscape:current-layer="svg14" />
  <path
     d="m 103.0001,252 h -16 V 174 H 181 v 78 h -16 v -15 h -61.9999 z"
     fill="#fff000"
     id="path2" />
  <path
     d="M 201,158 H 68.0001 V 55.5 H 201 Z"
     fill="#fef8e6"
     id="path4" />
  <path
     d="m 41,158 v -22 h 15 v 22 z"
     fill="#fef8e6"
     id="path6" />
  <path
     d="m 213,158 v -22 h 14 v 22 z"
     fill="#fef8e6"
     id="path8" />
  <path
     d="M 55.0009,120 H 68.0001 V 55.5 H 201 V 120 h 12.001 V 16 H 55.0009 Z"
     fill="#000000"
     id="path10" />
  <path
     d="m 47.0001,16 v 112 m 8,-120 H 213 m 8,8 v 112 m -16,38 h -16 m 16,0 v -38 h 30 v 38 z m -16,0 H 79.0001 M 189,166 v 94 h -32 v -15 h -45.9999 v 15 h -32 v -94 m 0,0 h -15 m 30,-88 v 47 M 173,78 v 47 m -125.9999,3 h 17 v 38 m -17,-38 H 33 v 38 h 31.0001"
     stroke="#000000"
     stroke-width="16"
     id="path12" />
</svg>
